<svg viewBox="0 0 44 44" fill="none" aria-hidden="true" class="absolute left-1/2 top-1/2 z-10 ml-[calc(theme(width.11)/-2)] mt-[calc(theme(height.11)/-2)] h-11 w-11"><g filter="url(#_R_7lqeh35fiv7mivb_)"><path stroke="#000" stroke-linecap="round" stroke-linejoin="round" stroke-opacity=".25" stroke-width="1.5" d="M32.147 27.52c0-5.471-4.543-9.908-10.147-9.908s-10.147 4.437-10.147 9.909c0 3.744 1.329 7.184 3.551 9.897a16.152 16.152 0 0 0 2.549 2.488m21.297-22.83C35.67 11.45 29.283 7.704 22 7.704c-7.283 0-13.67 3.746-17.25 9.372M34.176 5.785A25.735 25.735 0 0 0 22 2.75c-4.413 0-8.562 1.1-12.176 3.035M28.088 40.25c-6.322-.953-11.162-6.29-11.162-12.73 0-2.735 2.272-4.953 5.074-4.953s5.073 2.218 5.073 4.954c0 2.736 2.272 4.954 5.074 4.954s5.074-2.218 5.074-4.954c0-8.209-6.815-14.863-15.221-14.863-8.406 0-15.22 6.654-15.22 14.863 0 2.505.634 4.865 1.755 6.935M22 26.53c0 5.472 4.543 9.908 10.147 9.908.695 0 1.374-.068 2.03-.198" shape-rendering="crispEdges"></path></g><path stroke="#5DE3FF" stroke-linecap="round" stroke-linejoin="round" stroke-width="1.5" pathLength="1" stroke-dasharray="0 2" d="M39.25 17.076C35.67 11.45 29.283 7.704 22 7.704c-7.283 0-13.67 3.746-17.25 9.372" opacity="0"></path><path stroke="#5DE3FF" stroke-linecap="round" stroke-linejoin="round" stroke-width="1.5" pathLength="1" stroke-dasharray="0 2" d="M34.177 5.785A25.735 25.735 0 0 0 22.001 2.75c-4.413 0-8.562 1.1-12.177 3.035" opacity="0"></path><path stroke="#5DE3FF" stroke-linecap="round" stroke-linejoin="round" stroke-width="1.5" pathLength="1" stroke-dasharray="0 2" d="M32.148 27.52c0-5.471-4.543-9.908-10.147-9.908-5.605 0-10.148 4.437-10.148 9.909 0 3.744 1.33 7.184 3.552 9.897a16.152 16.152 0 0 0 2.548 2.488" opacity="0"></path><path stroke="#5DE3FF" stroke-linecap="round" stroke-linejoin="round" stroke-width="1.5" pathLength="1" stroke-dasharray="0 2" d="M22 26.53c0 5.472 4.543 9.908 10.147 9.908.695 0 1.374-.068 2.03-.198" opacity="0"></path><path stroke="#5DE3FF" stroke-linecap="round" stroke-linejoin="round" stroke-width="1.5" pathLength="1" stroke-dasharray="0 0.5 0 0.5 2" d="M28.088 40.25c-6.322-.953-11.162-6.29-11.162-12.73 0-2.735 2.272-4.953 5.074-4.953s5.073 2.218 5.073 4.954c0 2.736 2.272 4.954 5.074 4.954s5.074-2.218 5.074-4.954c0-8.209-6.815-14.863-15.221-14.863-8.406 0-15.22 6.654-15.22 14.863 0 2.505.634 4.865 1.755 6.935" opacity="0"></path><defs><filter id="_R_7lqeh35fiv7mivb_" width="36" height="40" x="4" y="2" color-interpolation-filters="sRGB" filterUnits="userSpaceOnUse"><feFlood flood-opacity="0" result="BackgroundImageFix"></feFlood><feColorMatrix in="SourceAlpha" result="hardAlpha" values="0 0 0 0 0 0 0 0 0 0 0 0 0 0 0 0 0 0 127 0"></feColorMatrix><feOffset dy="1"></feOffset><feComposite in2="hardAlpha" operator="out"></feComposite><feColorMatrix values="0 0 0 0 1 0 0 0 0 1 0 0 0 0 1 0 0 0 0.06 0"></feColorMatrix><feBlend in2="BackgroundImageFix" mode="color-dodge" result="effect1_dropShadow_145_93"></feBlend><feBlend in="SourceGraphic" in2="effect1_dropShadow_145_93" result="shape"></feBlend></filter></defs></svg>